<svg width="16" height="17" viewBox="0 0 16 17" fill="none" xmlns="http://www.w3.org/2000/svg">
<path d="M13.3333 2.49996H12.6666V1.83329C12.6666 1.46663 12.3666 1.16663 11.9999 1.16663C11.6333 1.16663 11.3333 1.46663 11.3333 1.83329V2.49996H4.66659V1.83329C4.66659 1.46663 4.36659 1.16663 3.99992 1.16663C3.63325 1.16663 3.33325 1.46663 3.33325 1.83329V2.49996H2.66659C1.93325 2.49996 1.33325 3.09996 1.33325 3.83329V14.5C1.33325 15.2333 1.93325 15.8333 2.66659 15.8333H13.3333C14.0666 15.8333 14.6666 15.2333 14.6666 14.5V3.83329C14.6666 3.09996 14.0666 2.49996 13.3333 2.49996ZM12.6666 14.5H3.33325C2.96659 14.5 2.66659 14.2 2.66659 13.8333V5.83329H13.3333V13.8333C13.3333 14.2 13.0333 14.5 12.6666 14.5Z" fill="#F5F5F5"/>
</svg>
