<svg width="16" height="17" viewBox="0 0 16 17" fill="none" xmlns="http://www.w3.org/2000/svg">
<path d="M13.3335 2.50008H12.6668V1.83341C12.6668 1.46675 12.3668 1.16675 12.0002 1.16675C11.6335 1.16675 11.3335 1.46675 11.3335 1.83341V2.50008H4.66683V1.83341C4.66683 1.46675 4.36683 1.16675 4.00016 1.16675C3.6335 1.16675 3.3335 1.46675 3.3335 1.83341V2.50008H2.66683C1.9335 2.50008 1.3335 3.10008 1.3335 3.83341V14.5001C1.3335 15.2334 1.9335 15.8334 2.66683 15.8334H13.3335C14.0668 15.8334 14.6668 15.2334 14.6668 14.5001V3.83341C14.6668 3.10008 14.0668 2.50008 13.3335 2.50008ZM12.6668 14.5001H3.3335C2.96683 14.5001 2.66683 14.2001 2.66683 13.8334V5.83341H13.3335V13.8334C13.3335 14.2001 13.0335 14.5001 12.6668 14.5001Z" fill="#F5F5F5"/>
</svg>
