<svg width="16" height="17" viewBox="0 0 16 17" fill="none" xmlns="http://www.w3.org/2000/svg">
<path d="M7.33325 6.49992H8.66658V5.16659H7.33325V6.49992ZM7.99992 13.8333C5.05992 13.8333 2.66659 11.4399 2.66659 8.49992C2.66659 5.55992 5.05992 3.16659 7.99992 3.16659C10.9399 3.16659 13.3333 5.55992 13.3333 8.49992C13.3333 11.4399 10.9399 13.8333 7.99992 13.8333ZM7.99992 1.83325C7.12444 1.83325 6.25753 2.00569 5.4487 2.34072C4.63986 2.67575 3.90493 3.16682 3.28587 3.78587C2.03563 5.03612 1.33325 6.73181 1.33325 8.49992C1.33325 10.268 2.03563 11.9637 3.28587 13.214C3.90493 13.833 4.63986 14.3241 5.4487 14.6591C6.25753 14.9941 7.12444 15.1666 7.99992 15.1666C9.76803 15.1666 11.4637 14.4642 12.714 13.214C13.9642 11.9637 14.6666 10.268 14.6666 8.49992C14.6666 7.62444 14.4941 6.75753 14.1591 5.9487C13.8241 5.13986 13.333 4.40493 12.714 3.78587C12.0949 3.16682 11.36 2.67575 10.5511 2.34072C9.7423 2.00569 8.8754 1.83325 7.99992 1.83325V1.83325ZM7.33325 11.8333H8.66658V7.83325H7.33325V11.8333Z" fill="#828282"/>
</svg>
