<svg width="16" height="17" viewBox="0 0 16 17" fill="none" xmlns="http://www.w3.org/2000/svg">
<path d="M13.3333 2.50002H12.6666V1.83335C12.6666 1.46669 12.3666 1.16669 11.9999 1.16669C11.6333 1.16669 11.3333 1.46669 11.3333 1.83335V2.50002H4.66659V1.83335C4.66659 1.46669 4.36659 1.16669 3.99992 1.16669C3.63325 1.16669 3.33325 1.46669 3.33325 1.83335V2.50002H2.66659C1.93325 2.50002 1.33325 3.10002 1.33325 3.83335V14.5C1.33325 15.2334 1.93325 15.8334 2.66659 15.8334H13.3333C14.0666 15.8334 14.6666 15.2334 14.6666 14.5V3.83335C14.6666 3.10002 14.0666 2.50002 13.3333 2.50002ZM12.6666 14.5H3.33325C2.96659 14.5 2.66659 14.2 2.66659 13.8334V5.83335H13.3333V13.8334C13.3333 14.2 13.0333 14.5 12.6666 14.5Z" fill="#F5F5F5"/>
</svg>
