<svg width="16" height="17" viewBox="0 0 16 17" fill="none" xmlns="http://www.w3.org/2000/svg">
<path d="M13.3334 2.50002H12.6667V1.83335C12.6667 1.46669 12.3667 1.16669 12 1.16669C11.6334 1.16669 11.3334 1.46669 11.3334 1.83335V2.50002H4.66671V1.83335C4.66671 1.46669 4.36671 1.16669 4.00004 1.16669C3.63337 1.16669 3.33337 1.46669 3.33337 1.83335V2.50002H2.66671C1.93337 2.50002 1.33337 3.10002 1.33337 3.83335V14.5C1.33337 15.2334 1.93337 15.8334 2.66671 15.8334H13.3334C14.0667 15.8334 14.6667 15.2334 14.6667 14.5V3.83335C14.6667 3.10002 14.0667 2.50002 13.3334 2.50002ZM12.6667 14.5H3.33337C2.96671 14.5 2.66671 14.2 2.66671 13.8334V5.83335H13.3334V13.8334C13.3334 14.2 13.0334 14.5 12.6667 14.5Z" fill="#F5F5F5"/>
</svg>
