<svg width="16" height="17" viewBox="0 0 16 17" fill="none" xmlns="http://www.w3.org/2000/svg">
<path d="M7.3335 6.50004H8.66683V5.16671H7.3335V6.50004ZM8.00016 13.8334C5.06016 13.8334 2.66683 11.44 2.66683 8.50004C2.66683 5.56004 5.06016 3.16671 8.00016 3.16671C10.9402 3.16671 13.3335 5.56004 13.3335 8.50004C13.3335 11.44 10.9402 13.8334 8.00016 13.8334ZM8.00016 1.83337C7.12468 1.83337 6.25778 2.00581 5.44894 2.34084C4.6401 2.67588 3.90517 3.16694 3.28612 3.786C2.03587 5.03624 1.3335 6.73193 1.3335 8.50004C1.3335 10.2682 2.03587 11.9638 3.28612 13.2141C3.90517 13.8331 4.6401 14.3242 5.44894 14.6592C6.25778 14.9943 7.12468 15.1667 8.00016 15.1667C9.76827 15.1667 11.464 14.4643 12.7142 13.2141C13.9644 11.9638 14.6668 10.2682 14.6668 8.50004C14.6668 7.62456 14.4944 6.75765 14.1594 5.94882C13.8243 5.13998 13.3333 4.40505 12.7142 3.786C12.0952 3.16694 11.3602 2.67588 10.5514 2.34084C9.74255 2.00581 8.87564 1.83337 8.00016 1.83337V1.83337ZM7.3335 11.8334H8.66683V7.83337H7.3335V11.8334Z" fill="#828282"/>
</svg>
