<svg width="16" height="17" viewBox="0 0 16 17" fill="none" xmlns="http://www.w3.org/2000/svg">
<path d="M7.33337 6.49992H8.66671V5.16659H7.33337V6.49992ZM8.00004 13.8333C5.06004 13.8333 2.66671 11.4399 2.66671 8.49992C2.66671 5.55992 5.06004 3.16659 8.00004 3.16659C10.94 3.16659 13.3334 5.55992 13.3334 8.49992C13.3334 11.4399 10.94 13.8333 8.00004 13.8333ZM8.00004 1.83325C7.12456 1.83325 6.25765 2.00569 5.44882 2.34072C4.63998 2.67575 3.90505 3.16682 3.286 3.78587C2.03575 5.03612 1.33337 6.73181 1.33337 8.49992C1.33337 10.268 2.03575 11.9637 3.286 13.214C3.90505 13.833 4.63998 14.3241 5.44882 14.6591C6.25765 14.9941 7.12456 15.1666 8.00004 15.1666C9.76815 15.1666 11.4638 14.4642 12.7141 13.214C13.9643 11.9637 14.6667 10.268 14.6667 8.49992C14.6667 7.62444 14.4943 6.75753 14.1592 5.9487C13.8242 5.13986 13.3331 4.40493 12.7141 3.78587C12.095 3.16682 11.3601 2.67575 10.5513 2.34072C9.74243 2.00569 8.87552 1.83325 8.00004 1.83325V1.83325ZM7.33337 11.8333H8.66671V7.83325H7.33337V11.8333Z" fill="#828282"/>
</svg>
